Point (1) = {1.000000000000,0.000000000000,0.000000000000};
Point (2) = {1.000000000000,1.000000000000,0.000000000000};
Point (3) = {0.000000000000,1.000000000000,0.000000000000};
Point (4) = {-0.000000000000,0.072876995892,-0.000000000000};
Point (5) = {-0.000000000000,1.000000000000,0.523792986818};
Point (6) = {1.000000000000,1.000000000000,0.921109989703};
Point (7) = {1.000000000000,-0.000000000000,0.356143977106};
Point (8) = {0.103627646137,-0.000000000000,-0.000000000000};
Point (9) = {0.000000000000,0.000000000000,0.000000000000};
Point (10) = {0.000000000000,0.000000000000,1.000000000000};
Point (11) = {0.000000000000,1.000000000000,1.000000000000};
Point (12) = {1.000000000000,1.000000000000,1.000000000000};
Point (13) = {1.000000000000,0.000000000000,1.000000000000};
Line (1) = {3,4};
Line (2) = {4,5};
Line (3) = {5,3};
Line (4) = {1,2};
Line (5) = {2,6};
Line (6) = {6,7};
Line (7) = {7,1};
Line (8) = {7,8};
Line (9) = {8,1};
Line (10) = {2,3};
Line (11) = {5,6};
Line (12) = {8,4};
Line (13) = {9,10};
Line (14) = {10,11};
Line (15) = {11,5};
Line (16) = {4,9};
Line (17) = {12,13};
Line (18) = {13,7};
Line (19) = {6,12};
Line (20) = {13,10};
Line (21) = {9,8};
Line (22) = {11,12};
Line Loop (1) = {1,2,3};
Plane Surface (1) = {1}; Physical Surface (1) = {1};
Line Loop (2) = {4,5,6,7};
Plane Surface (2) = {2}; Physical Surface (2) = {2};
Line Loop (3) = {-7,8,9};
Plane Surface (3) = {3}; Physical Surface (3) = {3};
Line Loop (4) = {10,-3,11,-5};
Plane Surface (4) = {4}; Physical Surface (4) = {4};
Line Loop (5) = {-10,-4,-9,12,-1};
Plane Surface (5) = {5}; Physical Surface (5) = {5};
Line Loop (6) = {2,11,6,8,12};
Plane Surface (6) = {6}; Physical Surface (6) = {6};
Line Loop (7) = {13,14,15,-2,16};
Plane Surface (7) = {7}; Physical Surface (7) = {7};
Line Loop (8) = {17,18,-6,19};
Plane Surface (8) = {8}; Physical Surface (8) = {8};
Line Loop (9) = {20,-13,21,-8,-18};
Plane Surface (9) = {9}; Physical Surface (9) = {9};
Line Loop (10) = {22,-19,-11,-15};
Plane Surface (10) = {10}; Physical Surface (10) = {10};
Line Loop (11) = {-16,-12,-21};
Plane Surface (11) = {11}; Physical Surface (11) = {11};
Line Loop (12) = {-17,-22,-14,-20};
Plane Surface (12) = {12}; Physical Surface (12) = {12};
Surface Loop (1) = {1,2,3,4,5,-6};
Volume (1) = {1};
Physical Volume (1) = {1};
Surface Loop (2) = {7,8,9,10,11,12,6};
Volume (2) = {2};
Physical Volume (2) = {2};
