ply
format ascii 1.0
element vertex 13
property float x
property float y
property float z
element face 12
property list uchar int vertex_indices
element cell 2
property list uchar int face_indices
end_header
1.000000000000 0.000000000000 0.000000000000
1.000000000000 1.000000000000 0.000000000000
0.000000000000 1.000000000000 0.000000000000
-0.000000000000 0.072876995892 -0.000000000000
-0.000000000000 1.000000000000 0.523792986818
1.000000000000 1.000000000000 0.921109989703
1.000000000000 -0.000000000000 0.356143977106
0.103627646137 -0.000000000000 -0.000000000000
0.000000000000 0.000000000000 0.000000000000
0.000000000000 0.000000000000 1.000000000000
0.000000000000 1.000000000000 1.000000000000
1.000000000000 1.000000000000 1.000000000000
1.000000000000 0.000000000000 1.000000000000
3 2 3 4
4 0 1 5 6
3 0 6 7
4 1 2 4 5
5 2 1 0 7 3
5 3 4 5 6 7
5 8 9 10 4 3
4 11 12 6 5
5 12 9 8 7 6
4 10 11 5 4
3 8 3 7
4 12 11 10 9
6 0 1 2 3 4 5
7 6 7 8 9 10 11 5
