ply
format ascii 1.0
element vertex 6
property float x
property float y
property float z
element face 2
property list uchar int vertex_indices
element cell 2
property list uchar int face_indices
end_header
1.000000000000 0.000000000000 0.000000000000
1.000000000000 1.000000000000 0.000000000000
0.000000000000 1.000000000000 0.000000000000
-0.000000000000 0.658050611345 -0.000000000000
0.935716889234 -0.000000000000 -0.000000000000
0.000000000000 0.000000000000 0.000000000000
5 2 1 0 4 3
3 5 3 4
1 0
1 1
