# Alias OBJ Model File
# File units = millimeters

mtllib house.mtl

g Mesh1 cube1 Model

usemtl FrontColor
v 0 0 -100
vt -3.93701 7.43014e-33
vn -1 -3.17335e-17 -5.9472e-17
v 0 0 -0
vt 0 0
v -5.63993e-15 58.7091 -0
vt 1.32054e-32 2.31138
v -5.63993e-15 100 -28.6182
vt -1.1267 3.93701
v 5.63993e-15 64.4321 -100
vt -3.93701 2.5367
f 1/1/1 2/2/1 3/3/1 4/4/1 5/5/1 

v 100 0 -100
vt -3.93701 3.93701
vn 0 -1 -0
v 100 0 -0
vt -3.93701 0
vt 0 3.93701
f 6/6/2 7/7/2 2/2/2 1/8/2 

vt 3.93701 0
vn 1 0 -0
v 100 64.4321 -100
vt 3.93701 2.5367
v 100 100 -28.6182
vt 1.1267 3.93701
v 100 58.7091 -0
vt 0 2.31138
f 6/9/3 8/10/3 9/11/3 10/12/3 7/2/3 

vn 0 0 -1
vt -2.22045e-16 2.5367
f 1/2/4 5/13/4 8/5/4 6/7/4 

vt -3.93701 0.747376
vn -1.27335e-17 0.895043 -0.445979
vt -3.93701 -2.39248
vt -3.34453e-16 -2.39248
vt 1.89875e-16 0.747376
f 9/14/5 8/15/5 5/16/5 4/17/5 

vt 3.93701 1.89971
vn 3.62394e-33 0.569643 0.821892
vt 3.93701 3.87761
vt -2.22045e-16 3.87761
vt -2.22045e-16 1.89971
f 10/18/6 9/19/6 4/20/6 3/21/6 

vt 3.93701 2.31138
vn 0 0 1
vt -2.22045e-16 2.31138
f 10/22/7 3/23/7 2/2/7 7/9/7 

